<?xml version="1.0" encoding="utf-8"?>
<!-- Generator: Adobe Illustrator 27.5.0, SVG Export Plug-In . SVG Version: 6.00 Build 0)  -->
<svg version="1.1" id="Layer_1" xmlns="http://www.w3.org/2000/svg" xmlns:xlink="http://www.w3.org/1999/xlink" x="0px" y="0px"
	 viewBox="0 0 1000 1000" style="enable-background:new 0 0 1000 1000;" xml:space="preserve">

<g id="Layer_5">
	<g>
		<path style="fill:#717171;" d="M366.165,476.83c-0.817,0.7-4.904-21.603-4.904-21.603l2.335-14.363l7.343-15.998L549.804,544.34
			l90.604,62.84l25.508-4.828l8.993,9.372l3.445,10.667l-4.013,14.515l-12.784,9.847l-14.292,1.893l-41.071-0.008l-35.885-12.253
			l-60.971-32.589l-115.572-97.696L366.165,476.83z"/>
		<path style="fill:#8A6DE0;" d="M649.633,646.76c-1.262-2.852-4.607-7.979-5.159-11.22c-0.401-2.367-1.259-8.823,1.398-10.458
			c2.114-1.3,7.871,0.39,10.096,0.613c5.045,0.507,14.77-0.253,19.64-1.83c0.191-3.211-0.322-5.996-1.802-8.795
			c-1.123-0.361-0.416-0.106-2.078-0.877c-3.348,0.586-11.513,1.486-14.896,1.607c-4.879,0.088-9.704-0.738-14.484-1.613
			c-49.115-10.967-84.146-34.636-97.967-43.466c-37.288-27.58-73.267-56.864-109.463-85.848
			c-20.711-16.584-45.482-35.788-66.005-52.602l-0.04,0.093l72.623,62.588c-49.71-39.094-24.982-19.646-74.181-58.339l-0.133,0.502
			l58.862,50.01l1.357,1.153l-0.003,0.011l-61.24-47.282l-0.088,0.455l47.533,40.596l-0.004,0.012l-48.222-36.459
			c-1.417,9.996-1.036,20.178,2.186,29.774c0.913,2.257,8.82,9.835,10.589,11.519c6.004,5.721,12.164,11.278,18.347,16.803
			c4.355,3.906,13.424,12.113,13.433,12.056c0.01-0.058,5.277,2.743,7.578,3.639c2.157,0.84,8.863,4.338,10.466,5.397
			c9.639,6.359,19.09,12.848,27.81,20.418c6.765,5.872,13.341,11.922,19.418,18.513c7.698,8.733,6.988,12.217,7.772,14.281
			c13.339,10.655,26.398,21.687,40.26,31.664c6.666-1.851,18.173-4.936,24.853-6.733c2.5-0.67,6.197-1.644,8.93-2.33
			c1.725-0.433,3.82-1.228,5.663-1.14c6.377,0.306,12.934,2.563,18.902,4.553c8.086,2.695,15.47,5.434,23.351,8.7
			c6.264,2.595,11.345,4.856,17.207,7.902c1.71,0.888,6.502,3.172,7.113,5.346c-4.221,0.834-8.462,1.563-12.7,2.303
			c2.739,1.671,5.922,2.143,9.063,2.322l-1.938,0.182c-3.726,0.023-7.358-0.879-10.927-1.852l-2.447,0.417
			c4.776,2.654,9.934,3.57,15.312,3.844l-3.872,0.109c-4.896-0.289-9.712-1.497-14.192-3.484l-2.009,0.338
			c6.736,4.19,14.423,5.939,22.152,5.815l-0.028,0.009c-1.716,0.189-0.699,0.099-3.054,0.216c-7.769-0.004-15.438-1.952-22.33-5.498
			l-1.763,0.294c8.709,5.127,18.769,6.975,28.735,7.431l-5.09,0.003c-9.671-0.141-18.716-2.946-27.483-6.793l-2.09,0.35
			c12.842,6.656,22.256,8.482,36.272,8.456c-5.411,0.324-2.234,0.196-9.536,0.229c-10.843-0.233-20.696-3.885-30.548-8.06
			l-1.874,0.284c14.411,7.846,27.216,10.466,43.398,9.697c-7.156,0.475-2.955,0.511-12.604,0.477
			c-11.56-0.04-23.275-3.977-35.867-9.404l-2.023,0.308c19.348,10.622,36.185,11.126,52.241,10.876
			c-6.807,0.806-14.113,1.034-20.135,0.685c-12.655-0.735-22.634-4.683-37.396-10.758l-0.693,0.106
			c5.207,3.315,14.741,7.452,23.413,9.541C620.051,649.788,649.633,646.76,649.633,646.76z M645.363,571.219l1.405,1.464
			c0.475-7.377,0.955-14.754,1.435-22.131l-21.479,4.318l7.623,6.349L645.363,571.219z M604.637,511.578
			c15.43,0.875,30.861-0.517,46.233-1.715c1.775-26.111,3.353-52.235,4.949-78.358c0.562-9.74,0.965-17.393,1.196-22.81
			c0.122-2.843,0.196-5.058,0.221-6.611l0.006-0.561c-2.755-2.061-5.632-3.998-8.923-5.114c-1.165-0.395-2.401-0.53-3.602-0.795
			c-0.609,1.417-1.157,2.861-1.712,4.301c-1.504,3.946-3.491,9.462-5.979,16.581c-11.001,31.581-21.403,63.367-32.349,94.968
			L604.637,511.578z M411.705,660.248c-2.86-1.242-13.058-8.988-12.881-14.289c10.412-3.734,21.117-6.691,31.729-9.806
			c10.258-3.01,23.564-6.857,33.299-9.643c38.94-11.081,20.988-6.023,53.846-15.215c-12.981-9.152-25.088-19.479-37.333-29.573
			l-0.323-0.27c-44.993,2.421-89.608,8.979-134.134,15.594c-0.748,6.892-4.052,11.115-10.772,12.867
			c-6.768,0.192-12.364-4.215-17.196-8.478c-20.048,3.228-40.073,6.589-60.08,10.067c-0.772,4.83-3.959,8.6-8.732,9.358
			c-4.555,0.042-8.362-2.95-11.642-5.817c-37.55,6.561-75.053,13.384-112.586,20.037c-13.738,2.436-23.302,4.263-38.186,6.266
			c-4.251,0.572-8.544,0.767-12.817,1.15l-1.31-0.024c-6.797-7.058-28.678-38.298-28.061-42.93
			c0.617-4.633,23.963,22.802,23.963,22.802c100.355-24.802,50.211-12.27,150.433-37.6c-0.097-0.527-0.131-1.065-0.182-1.6
			c-0.398-9.214,4.641-17.76,15.795-17.439c7.485,0.2,12.225,4.666,15.917,10.902c29.315-7.675,14.668-3.795,43.938-11.638
			l-0.411-2.568c-0.512-11.85,5.969-22.841,20.315-22.429c9.598,0.22,15.204,6.061,20.267,13.587
			c17.246-5.037,33.323-13.212,49.143-21.585c7.696-4.074,15.063-8.529,22.003-13.79c-10.832-9.509-21.502-19.193-31.912-29.161
			c-3.279-3.14-6.405-6.308-9.035-10.017c-0.108-0.206-0.058-0.102-0.148-0.315c-8.339-19.679-3.877-48.58,7.73-57.836
			c12.416-9.902,35.313-9.751,54.984-0.166c6.764,3.296,31.36,18.876,68.759,43.272c0.632,0.411,1.266,0.825,1.903,1.24
			c15.03,9.813,31.02,20.324,46.933,30.836c10.624,7.025,5.313,3.511,15.934,10.543c0.957-3.883,2.693-7.609,5.685-10.351
			c5.908-5.413,16.711-6.503,23.741-2.448c3.576,2.064,6.015,5.019,8.48,8.252c19.376-56.844,9.703-28.417,29.02-85.282
			c2.07-5.99,4.147-11.983,6.368-17.921c1.271-3.398,2.466-7.03,4.415-10.122c0.368-0.585,1.634-1.863,1.842-2.089l2.001,0.092
			c8.528,0.392,13.602,2.928,21.698,9.183l1.023,0.79c0.619,2.001,0.508,1.302,0.656,4.033c0.203,3.77-0.029,7.551-0.19,11.321
			c-0.472,10.999-1.049,18.964-1.698,29.345c-3.225,51.651-0.948,16.152-4.31,67.796l3.376-0.265
			c-0.229-13.15,11.604-20.795,23.39-14.829c4.828,2.442,7.626,7.368,9.845,12.029l4.402-0.398
			c100.169-9.448,51.49-4.722,151.607-14.704c19.985-1.992,39.961-4.228,59.996-5.653c15.443-2.681,37.279-27.162,43.285-22.872
			c-1.609,4.719-13.363,29.522-20.549,36.815c-5.926,1.838-3.799,1.273-11.903,3.118c-27.462,6.248-56.685,10.427-84.16,15.039
			c-44.122,7.407-88.227,14.742-132.308,22.419c-0.297,5.521-3.174,7.122-8.065,7.139c-6.246-1.727-3.056-0.477-9.459-4.024
			l-32.075,5.897l-1.976,30.209l-0.155,2.296l0.503,0.583c52.65-3.908,105.453-5.089,158.153-8.081
			c2.857,1.249,19.694,4.991,19.507,10.291c-3.318,1.04-2.752,0.935-6.146,1.704c-23.785,5.382-47.669,10.231-71.572,15.062
			c-25.583,5.172-51.191,10.513-76.881,15.156c2.587,9.004,0.768,19.464-6.047,26.132c-5.742,5.052-10.334,6.602-20.694,7.769
			c-9.776,1.102-31.967,1.12-44.387-0.202c-13.779-2.573-26.838-8.295-39.799-13.453c-66.297,10.681-29.251,4.799-111.159,17.511
			c-14.559,2.211-29.129,4.569-43.757,6.297L411.705,660.248z"/>
		<path style="fill:#717171;" d="M665.109,508.604c-0.154-2.031-0.37-5.838,2.633-9.375c1.081,1.513,3.182,6.706,7.077,6.791
			c1.336,0.029,15.323,0.227,15.323,0.227S667.833,508.348,665.109,508.604z"/>
		<path style="fill:#717171;" d="M928.158,496.088c0.666,0.183,1.526,0.972,1.985,1.786
			c-52.773,9.407-272.875,46.466-272.875,46.466l0.514-9.748C657.782,534.592,844.546,504.783,928.158,496.088z"/>
		<path style="fill:#717171;" d="M642.207,391.021c8.907,0.409,14.262,4.425,19.26,8.286c1.294,3.77-11.601,188.683-12.093,200.213
			c-9.051,1.205-72.831-47.043-79.065-62.002c7.739,1.633,14.898,3.159,19.941-0.481
			C594.284,533.015,638.12,395.432,642.207,391.021z"/>
		<path style="fill:#717171;" d="M412.905,656.781L412.905,656.781c27.213-4.987,180.738-32.041,203.786-35.97
			c1.785,0.31,5.754,2.302,6.741,3.353C581.607,631.481,439.298,654.944,412.905,656.781z"/>
		<path style="fill:#717171;" d="M581.082,537.349c-6.3-1.446-12.686-5.532-15.924-3.054c-10.929,8.673,58.273,54.449,63.035,57.025
			c-9.19-6.544-65.018-43.903-60.504-55.234C569.602,534.282,577.639,537.521,581.082,537.349z"/>
		<path style="fill:#717171;" d="M74.514,640.432c0,0-0.287-2.654-0.492-3.967c27.018-11.314,395.064-74.007,395.064-74.007
			s8.267,7.337,8.267,12.991C389.958,578.107,74.514,640.432,74.514,640.432z"/>
		<path style="fill:#717171;" d="M377.816,422.843c27.837-5.706,29.074-9.377,119.297,46.883
			C415.74,415.377,406.931,410.45,377.816,422.843z"/>
		<g>
			<path style="fill:#808080;" d="M402.794,489.664l-2.725-2.31l-0.026-10.22l2.752,2.287V489.664z"/>
			<path style="fill:#808080;" d="M397.981,485.586l-2.754-2.332l-0.024-10.143l2.753,2.288L397.981,485.586z"/>
			<path style="fill:#808080;" d="M393.139,481.483l-2.753-2.332l-0.024-10.063l2.753,2.287L393.139,481.483z"/>
			<path style="fill:#808080;" d="M388.298,477.383l-2.753-2.332l-0.025-9.986l2.754,2.288L388.298,477.383z"/>
			<path style="fill:#808080;" d="M383.456,473.28l-2.753-2.332l-0.025-9.908l2.753,2.288L383.456,473.28z"/>
			<path style="fill:#808080;" d="M378.616,469.179l-2.753-2.332l-0.025-9.83l2.753,2.288L378.616,469.179z"/>
			<path style="fill:#808080;" d="M373.794,465.064l-2.855-2.385v-9.743l2.83,2.331L373.794,465.064z"/>
			<path style="fill:#808080;" d="M429.147,511.989l-2.755-2.333l-0.025-10.645l2.753,2.289L429.147,511.989z"/>
			<path style="fill:#808080;" d="M424.306,507.887l-2.754-2.332l-0.025-10.566l2.753,2.288L424.306,507.887z"/>
			<path style="fill:#808080;" d="M419.464,503.785l-2.754-2.332l-0.026-10.487l2.755,2.288L419.464,503.785z"/>
			<path style="fill:#808080;" d="M414.623,499.683l-2.754-2.332l-0.026-10.41l2.754,2.288L414.623,499.683z"/>
			<path style="fill:#808080;" d="M409.781,495.582l-2.738-2.318v-10.312l2.712,2.254L409.781,495.582z"/>
			<path style="fill:#808080;" d="M490.199,563.709l-2.753-2.331l-0.029-11.628l2.753,2.287L490.199,563.709z"/>
			<path style="fill:#808080;" d="M485.359,559.608l-2.753-2.332l-0.029-11.55l2.753,2.288L485.359,559.608z"/>
			<path style="fill:#808080;" d="M480.517,555.507l-2.753-2.332l-0.028-11.473l2.753,2.288L480.517,555.507z"/>
			<path style="fill:#808080;" d="M475.676,551.404l-2.753-2.332l-0.029-11.394l2.754,2.288L475.676,551.404z"/>
			<path style="fill:#808080;" d="M470.835,547.304l-2.754-2.332l-0.028-11.317l2.753,2.288L470.835,547.304z"/>
			<path style="fill:#808080;" d="M465.994,543.203l-2.754-2.332l-0.028-11.237l2.754,2.288L465.994,543.203z"/>
			<path style="fill:#808080;" d="M461.153,539.101l-2.754-2.332l-0.028-11.16l2.754,2.288L461.153,539.101z"/>
			<path style="fill:#808080;" d="M456.31,535l-2.754-2.331l-0.027-11.082l2.754,2.288L456.31,535z"/>
			<path style="fill:#808080;" d="M451.47,530.898l-2.754-2.332l-0.026-11.004l2.753,2.288L451.47,530.898z"/>
			<path style="fill:#808080;" d="M446.627,526.798l-2.753-2.332l-0.027-10.927l2.753,2.288L446.627,526.798z"/>
			<path style="fill:#808080;" d="M441.786,522.697l-2.753-2.332l-0.027-10.848l2.753,2.288L441.786,522.697z"/>
			<path style="fill:#808080;" d="M436.946,518.594l-2.753-2.332l-0.027-10.77l2.753,2.288L436.946,518.594z"/>
			<path style="fill:#808080;" d="M514.529,584.221l-2.863-2.326l-0.03-12.018l2.99,2.417L514.529,584.221z"/>
			<path style="fill:#808080;" d="M509.578,580.125l-2.754-2.332l-0.03-11.941l2.754,2.289L509.578,580.125z"/>
			<path style="fill:#808080;" d="M504.735,576.026l-2.753-2.333l-0.029-11.863l2.753,2.289L504.735,576.026z"/>
			<path style="fill:#808080;" d="M499.895,571.925l-2.754-2.333l-0.029-11.785l2.754,2.289L499.895,571.925z"/>
			<path style="fill:#808080;" d="M495.053,567.821l-2.753-2.332l-0.029-11.706l2.754,2.288L495.053,567.821z"/>
		</g>
		<path style="fill:#717171;" d="M297.04,563.728c-0.199-2.612-1.199-8.634,2.663-13.183c1.391,1.946,3.667,8.036,8.5,7.599
			c1.712-0.155,19.894-3.652,19.894-3.652S300.597,562.587,297.04,563.728z"/>
		<path style="fill:#717171;" d="M221.121,584.176c-0.155-2.031-0.933-6.713,2.071-10.25c1.081,1.514,2.851,6.249,6.608,5.908
			c1.331-0.12,15.49-2.244,15.49-2.244S223.886,583.287,221.121,584.176z"/>
		<path style="fill:#717171;" d="M588.734,526.553l-23.847-17.071l-0.301-0.011l-0.004-0.207l-3.817-2.732
			c0.21-0.755,0.589-2.301,0.851-2.827l3.292,2.514c0.334-2.446,1.974-4.312,3.454-6.166c1.39,1.945,7.018,7.604,11.802,8.273
			c1.702,0.239,16.524,2.168,16.524,2.168c-9.1-0.272-18.197-0.559-27.296-0.853c10.818,8.257,4.112,3.14,20.117,15.351
			l-0.423,0.732L588.734,526.553z"/>
		<path style="fill:#717171;" d="M677.438,613.513c-0.791-1.945-0.127-0.363-2.371-4.572c39.755-6.915,79.506-13.854,119.293-20.579
			c7.381-1.248,13.968-2.354,21.311-3.56c4.635-0.763,9.287-1.598,13.955-2.153c-2.016,0.664-4.102,1.151-6.165,1.631
			c-20.329,4.73-40.864,8.665-61.332,12.727c-27.765,5.509-55.553,10.906-83.351,16.249L677.438,613.513z M675.067,608.941
			c-3.67-5.534-7.368-11.055-11.271-16.429c-2.712-3.734-5.434-7.519-8.683-10.815c-0.054,0.029,1.329-0.368,3.19-0.218
			c5.806,8.194,10.805,16.929,15.752,25.657L675.067,608.941z"/>
		<path style="fill:#717171;" d="M610.85,496.09c10.697-35.748,21.394-71.496,32.092-107.244l4.765,0.976L610.85,496.09z
			 M625.204,473.236c11.6-43,4.099-15.195,22.502-83.415l4.942,2.723L625.204,473.236z"/>
		<path style="fill:#717171;" d="M624.129,580.778c-1.017-0.518-3.283-1.65-4.258-2.249c-18.769-11.503-35.155-26.076-50.924-41.327
			l6.443,0.654c9.637,11.598,20.619,22.079,32.552,31.297c3.21,2.48,7.178,5.349,10.451,7.742L624.129,580.778z M612.733,566.514
			c-13.218-7.919-25.233-17.784-36.483-28.282l6.818,0.429c6.876,7.898,14.183,15.441,22.152,22.247
			c1.627,1.39,3.374,2.63,5.061,3.946L612.733,566.514z M608.828,557.748c-8.12-5.128-16.399-10.461-23.215-17.298
			c-0.713-0.715-1.375-1.479-2.063-2.219h0.17c1.2-0.141,2.404-0.246,3.607-0.359h0.169c4.969,6.134,10.864,11.355,16.84,16.46
			L608.828,557.748z"/>
	</g>
</g>
</svg>
