<?xml version="1.0" encoding="utf-8"?>
<!-- Generator: Adobe Illustrator 27.5.0, SVG Export Plug-In . SVG Version: 6.00 Build 0)  -->
<svg version="1.1" xmlns="http://www.w3.org/2000/svg" xmlns:xlink="http://www.w3.org/1999/xlink" x="0px" y="0px"
	 viewBox="0 0 500 500" style="enable-background:new 0 0 500 500;" xml:space="preserve">
	<g>
		<path style="fill:#ffffff;" d="M431.01,218.471c0,0-0.85-9.09-11.07-11.36c0,0-8.81-23.01-80.95-11.93l-106.51,13.63l-28.73-6.39
			c-0.87-2.78-2.57-5.6-5.85-6.71c-7.32-2.47-24.29,0-24.29,0l-44.51-9.9l-18.23-20.34c-2.43-2.71-6.11-3.93-9.68-3.2l-13.32,2.7
			l4.78,12.3l-23.86-5.58H55.17c-1.8,0-2.24,2.5-0.56,3.11l43.23,15.83l15.73,40.48l-43.48-9.59c0,0-12.5-2.43-27.49-0.6
			c-1,0.13-1.13,1.53-0.17,1.83l51.52,16.49l0.43,6.08c0,0,70.83,16.07,107.07,13.79l5.81-0.68c0,0,5.14,1.22,14.91,1.98
			c-0.2,0.44-0.31,0.93-0.31,1.45c0,2,1.62,3.63,3.62,3.63c0.5,0,0.98-0.11,1.42-0.29c0.62,1.07,1.78,1.81,3.11,1.81
			c1.67,0,3.05-1.13,3.48-2.66c0.34,0.11,0.69,0.18,1.06,0.18c0.5,0,0.98-0.11,1.41-0.29c0.4,0.69,1.02,1.24,1.77,1.54
			c-0.14,0.39-0.23,0.79-0.23,1.23c0,2,1.62,3.62,3.62,3.62c0.51,0,0.98-0.1,1.42-0.29c0.63,1.08,1.78,1.81,3.12,1.81
			c1.66,0,3.05-1.13,3.47-2.66c0.34,0.11,0.69,0.18,1.06,0.18c0.5,0,0.98-0.1,1.41-0.29c0.63,1.08,1.79,1.81,3.12,1.81
			c2,0,3.63-1.62,3.63-3.62c0-1.9-1.47-3.44-3.33-3.59v-3.59c1.08-0.07,2.17-0.15,3.28-0.24l3.28,8.48c0.17,0.39,2.52-0.36,5.3-1.48
			c-0.18,0.42-0.28,0.89-0.28,1.38c0,2,1.62,3.62,3.62,3.62c0.51,0,0.98-0.1,1.42-0.29c0.63,1.08,1.78,1.81,3.12,1.81
			c0.5,0,0.98-0.1,1.41-0.29c0.63,1.08,1.78,1.81,3.12,1.81c0.5,0,0.98-0.1,1.41-0.29c0.63,1.08,1.79,1.81,3.12,1.81
			c2,0,3.62-1.62,3.62-3.62s-1.62-3.62-3.62-3.62c-0.5,0-0.98,0.1-1.41,0.28c-0.1-0.17-0.22-0.33-0.35-0.49
			c1.13-2.48,4.81-8.87,12.19-7.07c2.5,0.61,5.08,0.8,7.65,0.8h7.09c0,0-0.67,8.58,5.2,11.06c0,0,15.26,2.93,28.06-2.48
			c0,0,1.72-1.54,1.99-3.61c0,0,3.69-0.09,7.56-1.89c3.87-1.8,3.87-10.31,3.87-10.31s-0.45-7.96-5.94-8.41c0,0-3.86-0.96-9.87,0
			l-7.42-1.57c3.22-0.97,6.48-1.97,9.81-3.06l30.25-3.52c0,0,15.55-1.09,30.62-4.29v9.41c-0.29-0.08-0.59-0.13-0.91-0.13
			c-2,0-3.62,1.62-3.62,3.62s1.62,3.62,3.62,3.62c0.5,0,0.98-0.1,1.41-0.29c0.63,1.08,1.79,1.81,3.12,1.81c2,0,3.63-1.62,3.63-3.62
			s-1.63-3.62-3.63-3.62c-0.46,0-0.91,0.09-1.31,0.25v-8.11c2.56-0.74,8.09-1.98,8.09-1.98l1.14-3.97
			C424.44,228.771,431.83,224.411,431.01,218.471z M153.84,233.841l-1.63,0.08c-0.91,0.03-1.67-0.66-1.71-1.57l-0.1-2.23
			c-0.03-0.9,0.68-1.67,1.57-1.7l1.65-0.08c0.9-0.03,1.67,0.68,1.7,1.57l0.09,2.23C155.46,233.041,154.75,233.811,153.84,233.841z
				M161.44,232.771l-1.63,0.06c-0.91,0.05-1.67-0.65-1.72-1.55l-0.09-2.23c-0.03-0.91,0.68-1.66,1.57-1.71l1.65-0.06
			c0.89-0.03,1.66,0.66,1.69,1.57l0.1,2.23C163.04,231.971,162.35,232.741,161.44,232.771z M169.04,231.701l-1.64,0.07
			c-0.91,0.03-1.66-0.66-1.71-1.57l-0.09-2.23c-0.03-0.9,0.66-1.67,1.57-1.7l1.63-0.06c0.91-0.05,1.66,0.66,1.71,1.55l0.1,2.23
			C170.64,230.901,169.95,231.661,169.04,231.701z M176.63,230.621l-1.63,0.08c-0.91,0.03-1.68-0.68-1.71-1.57l-0.09-2.23
			c-0.04-0.91,0.65-1.66,1.57-1.71l1.63-0.06c0.91-0.03,1.66,0.66,1.71,1.57l0.09,2.23
			C178.23,229.821,177.54,230.591,176.63,230.621z M244.33,265.161c-0.03,0.01-0.06,0.02-0.09,0.03c-0.4-0.69-1.02-1.24-1.76-1.54
			c0.13-0.38,0.22-0.79,0.22-1.22c0-0.54-0.12-1.04-0.32-1.49c0.64-0.01,1.29-0.03,1.95-0.05V265.161z M253.33,264.231
			c-0.01,0-0.01,0-0.02,0c-0.63-1.07-1.78-1.8-3.12-1.8c-1.66,0-3.05,1.12-3.47,2.65c-0.23-0.07-0.46-0.11-0.7-0.14v-4.1
			c2.34-0.07,4.78-0.19,7.31-0.34V264.231z M276.25,266.761c-0.45-0.21-0.96-0.33-1.49-0.33c-0.51,0-0.98,0.1-1.42,0.28
			c-0.42-0.72-1.08-1.28-1.87-1.57c2.56-1.21,4.64-2.38,4.78-2.85V266.761z M292.46,216.621l-1.64,0.08
			c-0.91,0.03-1.66-0.66-1.71-1.57l-0.09-2.23c-0.03-0.89,0.67-1.66,1.57-1.69l1.65-0.08c0.89-0.03,1.66,0.67,1.69,1.57l0.1,2.23
			C294.07,215.821,293.37,216.591,292.46,216.621z M300.05,215.551l-1.63,0.07c-0.91,0.04-1.66-0.66-1.71-1.56l-0.09-2.23
			c-0.04-0.91,0.67-1.66,1.56-1.71l1.65-0.06c0.9-0.03,1.67,0.66,1.7,1.57l0.09,2.23C301.65,214.751,300.96,215.521,300.05,215.551z
				M307.65,214.491l-1.63,0.06c-0.91,0.03-1.67-0.66-1.71-1.57l-0.1-2.23c-0.03-0.89,0.66-1.66,1.57-1.7l1.63-0.06
			c0.92-0.04,1.67,0.66,1.72,1.56l0.09,2.23C309.25,213.691,308.56,214.441,307.65,214.491z M315.25,213.401l-1.63,0.08
			c-0.92,0.03-1.68-0.67-1.72-1.57l-0.09-2.23c-0.03-0.91,0.66-1.66,1.57-1.71l1.63-0.06c0.91-0.03,1.67,0.66,1.71,1.57l0.1,2.23
			C316.85,212.601,316.16,213.371,315.25,213.401z M322.85,212.341l-1.65,0.06c-0.9,0.03-1.67-0.66-1.7-1.57l-0.09-2.23
			c-0.03-0.9,0.66-1.66,1.57-1.7l1.63-0.06c0.91-0.05,1.66,0.66,1.71,1.56l0.1,2.22C324.45,211.541,323.74,212.291,322.85,212.341z
				M330.44,211.251l-1.65,0.08c-0.89,0.03-1.66-0.67-1.69-1.57l-0.09-2.23c-0.05-0.89,0.65-1.66,1.56-1.69l1.64-0.08
			c0.91-0.03,1.66,0.66,1.71,1.57l0.09,2.23C332.04,210.451,331.34,211.221,330.44,211.251z M338.04,210.191l-1.65,0.06
			c-0.89,0.04-1.66-0.66-1.69-1.57l-0.1-2.22c-0.04-0.91,0.66-1.67,1.56-1.71l1.64-0.06c0.9-0.05,1.67,0.66,1.7,1.56l0.09,2.22
			C339.64,209.381,338.94,210.141,338.04,210.191z M402.93,208.371l-7.75,0.87l5.88-6.16l3.52-0.16L402.93,208.371z M410.33,206.531
			l-0.25,0.62c-0.18,0.41-0.57,0.7-1.02,0.73l-4.24,0.33l1.23-5.35l2.87-0.13l1.38,2.82
			C410.45,205.861,410.46,206.221,410.33,206.531z M414.32,207.121c-1.13-0.12-2.13-0.8-2.63-1.83l-1.3-2.63l1.53-0.07
			c1.05-0.05,2.06,0.39,2.74,1.19l3.17,3.68L414.32,207.121z"/>
	</g>
</svg>
