<?xml version="1.0" encoding="utf-8"?>
<!-- Generator: Adobe Illustrator 27.5.0, SVG Export Plug-In . SVG Version: 6.00 Build 0)  -->
<svg version="1.1" id="Layer_1" xmlns="http://www.w3.org/2000/svg" xmlns:xlink="http://www.w3.org/1999/xlink" x="0px" y="0px"
	 viewBox="0 0 1000 1000" style="enable-background:new 0 0 1000 1000;" xml:space="preserve">

<g id="Layer_5">
	<g>
		<path style="fill:#8A6DE0;" d="M467.336,305.836h0.873l5.737-6.904h-4.281l-2.329-0.216V305.836z M530.325,305.836h0.874v-7.913
			c-1.403,0.208-2.754,0.729-4.167,0.874c-0.256,0.027-2.147,0.115-2.447,0.13L530.325,305.836z M585.447,301.725h0.998v-20.645
			l-16.455,2.039L585.447,301.725z M408.798,300.002h0.999l14.603-17.577l-15.603-1.934V300.002z M474.401,334.548
			c-2.902,0-5.256-2.33-5.256-5.203v-4.028h-2.229v1.205h-2.693v-1.205h-2.23v3.999c0,2.89-2.353,5.232-5.254,5.232
			c-2.902,0-5.254-2.343-5.254-5.232v-9.861c0-2.89,2.352-5.232,5.254-5.232c2.901,0,5.254,2.343,5.254,5.232v3.999h2.23v-12.57
			h-1.418v-2.917h-1.425v-10.784c-6.165-1.774-10.354-6.342-13.233-11.813l-20.173-2.501l-15.844,19.071v3.833h-3.811v14.37h2.548
			v-4.604c0-3.286,2.689-5.95,6.008-5.95c3.317,0,6.007,2.664,6.007,5.95v11.337c0,3.286-2.689,5.95-6.007,5.95
			c-3.318,0-6.008-2.664-6.008-5.95v-4.603h-2.548v1.378h-3.079v-1.378h-2.55v4.571c0,3.304-2.689,5.982-6.007,5.982
			c-3.316,0-6.006-2.679-6.006-5.982V315.57c0-3.304,2.69-5.982,6.006-5.982c3.317,0,6.007,2.679,6.007,5.982v4.572h2.55v-14.37
			h-1.621v-3.335h-1.629v-22.79l-15.486-1.92c3.24,4.754,4.735,9.352,4.796,15.121c0,14.989-12.27,27.142-27.405,27.142
			c-15.136,0-27.405-12.152-27.405-27.142c0.41-8.039,3.041-14.743,9.202-20.181l-37.377-4.634l0.041,0.677
			c0,3.942-1.897,7.14-4.237,7.14c-2.34,0-4.237-3.197-4.237-7.14c0.092-1.529-0.03-0.973,0.152-1.703l-46.673-5.785l0.083,1.429
			c0,4.027-1.872,7.291-4.182,7.291c-2.309,0-4.182-3.264-4.182-7.291c0.104-1.794-0.03-0.992,0.314-2.417l-8.57-1.063
			c3.564,3.529,5.282,8.434,5.376,13.364c0,10.889-8.913,19.717-19.909,19.717c-10.995,0-19.909-8.826-19.909-19.717
			c0.351-6.876,3.15-12.759,9.163-16.498L89.911,240.959l-1.696-0.21l-6.791-25.211l4.78-1.645l7.943,18.177l351.324,16.144
			c-0.234-0.896,0.164-1.777,0.371-2.643c-0.015-1.089-0.288-2.165-0.296-3.253l0.09-3.019l-3.865-0.712
			c-10.19-1.862-20.389-3.684-30.569-5.609c-2.965-0.569-5.758-1.12-8.394-1.655c-8.195-1.665-29.688-7.41-29.123-12.175
			c0.37-2.612,1.518-3.469,3.185-3.974c0.729-0.221,1.658-0.351,2.826-0.418c2.05-0.115,4.91-0.033,8.549,0.229
			c6.271,0.453,14.709,1.427,25.09,2.842c1.913,0.261,3.884,0.536,5.92,0.825c20.524,3.046,10.714,1.606,29.429,4.327l0.069-0.232
			c6.054-18.357,12.193-41.813,29.991-52.807c4.645-2.869,6.085-3.114,10.503-4.498l0.409-9.737
			c0.413-9.383,0.789-18.769,1.333-28.148c0.387-6.691,0.803-13.388,1.549-20.063c0.302-2.696,0.617-5.648,1.127-8.346
			c0.407-2.158,1.114-6.447,3.83-7.862c0.976-0.508,1.493-0.472,2.497-0.534c2.395,0,3.48,1.095,4.273,2.789
			c0.418,0.896,0.77,2.097,1.089,3.641c0.566,2.734,1.039,6.626,1.455,11.727c1.246,17.146,1.685,34.318,2.371,51.48l0.185,5.377
			c24.81,7.518,33.081,35.345,39.587,57.419c10.282-1.473,20.556-3.005,30.83-4.531c2.036-0.289,4.006-0.564,5.919-0.825
			c10.382-1.415,18.817-2.389,25.09-2.842c3.639-0.262,6.5-0.344,8.55-0.229c1.168,0.067,2.096,0.197,2.825,0.418
			c1.666,0.505,2.815,1.361,3.185,3.974c0.565,4.765-20.928,10.51-29.123,12.175c-2.635,0.535-5.429,1.086-8.393,1.655
			c-10.181,1.926-20.38,3.747-30.571,5.609c-1.995,0.379-3.981,0.779-5.993,1.064l-0.067,1.227c-0.22,2.254-1.105,4.853-1.168,7.21
			l-0.018,0.333l355.836-16.351l7.943-18.177l4.78,1.645l-6.791,25.211l-1.696,0.21l-121.634,15.079
			c6.013,3.739,8.812,9.622,9.163,16.498c0,10.891-8.914,19.717-19.909,19.717s-19.909-8.828-19.909-19.717
			c0.093-4.931,1.813-9.835,5.376-13.364l-8.569,1.063c0.344,1.425,0.21,0.623,0.313,2.417c0,4.027-1.872,7.291-4.181,7.291
			c-2.311,0-4.183-3.264-4.183-7.291l0.083-1.429l-46.674,5.785c0.184,0.73,0.062,0.174,0.152,1.703c0,3.942-1.896,7.14-4.236,7.14
			s-4.237-3.197-4.237-7.14l0.04-0.677l-37.376,4.634c6.161,5.438,8.792,12.142,9.202,20.181c0,14.989-12.27,27.142-27.405,27.142
			s-27.405-12.152-27.405-27.142c0.061-5.77,1.556-10.367,4.796-15.121l-20.242,2.51v23.924h-1.63v3.334h-1.621v14.37h2.55v-4.571
			c0-3.304,2.69-5.982,6.007-5.982c3.317,0,6.007,2.679,6.007,5.982v11.272c0,3.304-2.689,5.982-6.007,5.982
			c-3.316,0-6.007-2.679-6.007-5.982v-4.571h-2.55v1.378h-3.078v-1.378h-2.549v4.604c0,3.285-2.69,5.949-6.007,5.949
			c-3.318,0-6.007-2.664-6.007-5.949v-11.337c0-3.286,2.689-5.95,6.007-5.95c3.317,0,6.007,2.664,6.007,5.95v4.603h2.549v-14.37
			h-3.811v-3.833l-16.697-20.098l-20.743,2.571c-1.848,3.844-5.156,6.537-8.518,9.034v12.796h-1.427v2.917h-1.418v12.57h2.231
			v-3.999c0-2.89,2.352-5.232,5.254-5.232s5.254,2.343,5.254,5.232v9.861c0,2.89-2.352,5.232-5.254,5.232s-5.254-2.343-5.254-5.232
			v-3.999h-2.231v1.205h-2.692v-1.205h-2.229v4.028c0,2.873-2.352,5.203-5.255,5.203c-2.901,0-5.255-2.33-5.255-5.203v-9.918
			c0-2.875,2.354-5.205,5.255-5.205c2.902,0,5.255,2.33,5.255,5.205v4.026h2.229v-12.57h-3.334v-3.353l-7.145-8.599h-19.587v11.513
			h-1.461v9.625h2.41v-3.617c0-1.773,1.378-3.211,3.078-3.211s3.078,1.438,3.078,3.211v10.421c0,1.774-1.378,3.211-3.078,3.211
			s-3.078-1.438-3.078-3.211v-4.593h-5.663v4.357c0,1.903-1.559,3.446-3.48,3.446c-1.923,0-3.48-1.543-3.48-3.446v-9.95
			c0-1.903,1.558-3.447,3.48-3.447c1.922,0.001,3.479,1.544,3.48,3.447v3.382h1.546v-9.625h-1.748v-11.513h-19.241l-7.143,8.599
			v3.353h-3.334v12.57h2.229v-4.026c0-2.875,2.353-5.205,5.256-5.205c2.901,0,5.255,2.33,5.255,5.205v9.918
			C479.656,332.218,477.303,334.548,474.401,334.548z"/>
		<path style="fill:#8A6DE0;" d="M505.098,289.331l0.648-0.126l-0.209,0.061L505.098,289.331z"/>
		<g>
			<path style="fill:#8A6DE0;" d="M336.699,296.417c0.249-1.222,0.432-5.381,0.815-6.566c2.49-7.693,8.528-13.902,16.301-16.302
				c3.368-1.038,4.374-0.963,7.37-1.113c2.996,0.15,4.003,0.075,7.37,1.113c6.117,1.889,11.377,6.231,14.424,11.857
				c1.96,3.621,1.799,7.299,2.556,11.011c0.745-3.63,0.339-7.552-0.747-11.073c-3.183-10.314-12.902-17.414-23.671-17.414
				c-10.77,0-20.488,7.1-23.671,17.414c-1.127,3.653-1.169,6.27-0.986,9.904L336.699,296.417z"/>
			<path style="fill:#8A6DE0;" d="M355.01,294.045c0.063-0.306,0.091-0.622,0.188-0.919c0.624-1.928,2.137-3.483,4.085-4.085
				c0.845-0.261,1.097-0.242,1.848-0.279c0.751,0.037,1.003,0.019,1.847,0.279c1.533,0.474,2.852,1.562,3.615,2.972
				c0.491,0.907,0.468,1.102,0.658,2.032c0.185-0.909,0.085-1.893-0.189-2.774c-0.797-2.585-3.232-4.365-5.932-4.365
				c-2.699,0-5.135,1.78-5.933,4.365c-0.282,0.915-0.293,1.57-0.247,2.482L355.01,294.045z"/>
			<path style="fill:#8A6DE0;" d="M361.143,314.686c-2.444-0.124-3.264-0.062-6.013-0.91c-8.806-2.717-14.62-11.167-14.158-20.323
				c0.457,10.705,9.49,19.212,20.171,19.212c10.766,0,19.631-8.485,20.173-19.212c0.475,7.667-3.79,15.142-10.533,18.792
				c-3.147,1.704-4.094,1.627-7.571,2.336L361.143,314.686z"/>
			<path style="fill:#8A6DE0;" d="M356.886,293.792c0.044,0.214,0.065,0.436,0.131,0.644c0.438,1.35,1.496,2.438,2.86,2.859
				c0.591,0.183,0.767,0.169,1.293,0.195c0.525-0.026,0.702-0.013,1.293-0.195c1.073-0.331,1.996-1.093,2.53-2.08
				c0.344-0.635,0.328-0.771,0.461-1.423c0.13,0.638,0.059,1.325-0.132,1.943c-0.559,1.809-2.264,3.055-4.152,3.055
				c-1.889,0-3.595-1.246-4.153-3.055c-0.197-0.641-0.205-1.1-0.173-1.738L356.886,293.792z"/>
		</g>
		<g>
			<path style="fill:#8A6DE0;" d="M606.513,296.417c0.249-1.222,0.433-5.381,0.816-6.566c2.49-7.693,8.528-13.902,16.3-16.302
				c3.369-1.038,4.374-0.963,7.371-1.113c2.996,0.15,4.002,0.075,7.37,1.113c6.117,1.889,11.377,6.231,14.423,11.857
				c1.96,3.621,1.799,7.299,2.556,11.011c0.744-3.63,0.34-7.552-0.747-11.073c-3.183-10.314-12.901-17.414-23.671-17.414
				c-10.769,0-20.487,7.1-23.671,17.414c-1.127,3.653-1.169,6.27-0.985,9.904L606.513,296.417z"/>
			<path style="fill:#8A6DE0;" d="M624.823,294.045c0.062-0.306,0.091-0.622,0.187-0.919c0.624-1.928,2.138-3.483,4.085-4.085
				c0.846-0.261,1.098-0.242,1.849-0.279c0.751,0.037,1.003,0.019,1.847,0.279c1.533,0.474,2.851,1.562,3.615,2.972
				c0.49,0.907,0.468,1.102,0.658,2.032c0.186-0.909,0.084-1.893-0.188-2.774c-0.798-2.585-3.233-4.365-5.932-4.365
				c-2.699,0-5.136,1.78-5.934,4.365c-0.283,0.915-0.293,1.57-0.247,2.482L624.823,294.045z"/>
			<path style="fill:#8A6DE0;" d="M630.957,314.686c-2.445-0.124-3.264-0.062-6.013-0.91c-8.807-2.717-14.62-11.167-14.158-20.323
				c0.457,10.705,9.49,19.212,20.171,19.212c10.765,0,19.63-8.485,20.172-19.212c0.476,7.667-3.79,15.142-10.533,18.792
				c-3.146,1.704-4.094,1.627-7.57,2.336L630.957,314.686z"/>
			<path style="fill:#8A6DE0;" d="M626.698,293.792c0.044,0.214,0.064,0.436,0.131,0.644c0.436,1.35,1.496,2.438,2.86,2.859
				c0.591,0.183,0.767,0.169,1.293,0.195c0.524-0.026,0.701-0.013,1.293-0.195c1.072-0.331,1.995-1.093,2.529-2.08
				c0.345-0.635,0.328-0.771,0.461-1.423c0.13,0.638,0.06,1.325-0.132,1.943c-0.558,1.809-2.263,3.055-4.151,3.055
				c-1.89,0-3.595-1.246-4.153-3.055c-0.198-0.641-0.205-1.1-0.173-1.738L626.698,293.792z"/>
		</g>
		<g>
			<path style="fill:#8A6DE0;" d="M754.28,275.546c0.171-0.839,0.297-3.693,0.56-4.509c1.71-5.281,5.856-9.544,11.192-11.189
				c2.311-0.715,3.002-0.661,5.059-0.766c2.058,0.105,2.747,0.051,5.06,0.766c4.199,1.296,7.81,4.276,9.901,8.139
				c1.347,2.486,1.235,5.011,1.755,7.56c0.512-2.491,0.233-5.185-0.513-7.603c-2.185-7.08-8.858-11.955-16.251-11.955
				c-7.392,0-14.066,4.875-16.25,11.955c-0.774,2.509-0.803,4.305-0.677,6.8L754.28,275.546z"/>
			<path style="fill:#8A6DE0;" d="M766.848,273.917c0.043-0.21,0.063-0.427,0.129-0.631c0.429-1.324,1.468-2.392,2.805-2.805
				c0.58-0.178,0.753-0.165,1.267-0.191c0.517,0.026,0.69,0.014,1.27,0.191c1.052,0.325,1.957,1.072,2.48,2.04
				c0.337,0.623,0.321,0.757,0.452,1.395c0.128-0.625,0.058-1.3-0.129-1.904c-0.548-1.775-2.22-2.997-4.073-2.997
				c-1.852,0-3.524,1.222-4.072,2.997c-0.194,0.628-0.201,1.077-0.17,1.703L766.848,273.917z"/>
			<path style="fill:#8A6DE0;" d="M771.06,288.087c-1.678-0.084-2.24-0.042-4.128-0.624c-6.045-1.864-10.036-7.667-9.719-13.951
				c0.314,7.349,6.515,13.189,13.847,13.189c7.392,0,13.477-5.826,13.849-13.189c0.327,5.264-2.602,10.394-7.231,12.9
				c-2.161,1.17-2.81,1.117-5.198,1.604L771.06,288.087z"/>
			<path style="fill:#8A6DE0;" d="M768.136,273.744c0.03,0.148,0.044,0.299,0.09,0.442c0.301,0.926,1.027,1.674,1.964,1.963
				c0.405,0.125,0.526,0.116,0.888,0.134c0.361-0.018,0.482-0.009,0.887-0.134c0.737-0.228,1.371-0.75,1.737-1.428
				c0.237-0.436,0.225-0.529,0.316-0.978c0.09,0.439,0.04,0.91-0.091,1.334c-0.383,1.242-1.553,2.099-2.85,2.099
				c-1.297,0-2.468-0.857-2.852-2.099c-0.136-0.439-0.141-0.755-0.118-1.192L768.136,273.744z"/>
		</g>
		<g>
			<path style="fill:#8A6DE0;" d="M204.041,275.546c0.171-0.839,0.297-3.693,0.56-4.509c1.71-5.281,5.855-9.544,11.191-11.189
				c2.312-0.715,3.002-0.661,5.06-0.766c2.057,0.105,2.747,0.051,5.059,0.766c4.2,1.296,7.811,4.276,9.902,8.139
				c1.346,2.486,1.235,5.011,1.755,7.56c0.511-2.491,0.233-5.185-0.513-7.603c-2.185-7.08-8.858-11.955-16.251-11.955
				c-7.393,0-14.065,4.875-16.25,11.955c-0.774,2.509-0.803,4.305-0.677,6.8L204.041,275.546z"/>
			<path style="fill:#8A6DE0;" d="M216.611,273.917c0.043-0.21,0.062-0.427,0.129-0.631c0.428-1.324,1.467-2.392,2.804-2.805
				c0.58-0.178,0.753-0.165,1.268-0.191c0.516,0.026,0.689,0.014,1.268,0.191c1.053,0.325,1.958,1.072,2.482,2.04
				c0.337,0.623,0.321,0.757,0.452,1.395c0.128-0.625,0.058-1.3-0.129-1.904c-0.548-1.775-2.22-2.997-4.073-2.997
				s-3.525,1.222-4.072,2.997c-0.194,0.628-0.202,1.077-0.17,1.703L216.611,273.917z"/>
			<path style="fill:#8A6DE0;" d="M220.822,288.087c-1.678-0.084-2.241-0.042-4.128-0.624c-6.045-1.864-10.037-7.667-9.719-13.951
				c0.314,7.349,6.515,13.189,13.847,13.189c7.391,0,13.476-5.826,13.848-13.189c0.327,5.264-2.601,10.394-7.23,12.9
				c-2.161,1.17-2.811,1.117-5.198,1.604L220.822,288.087z"/>
			<path style="fill:#8A6DE0;" d="M217.899,273.744c0.03,0.148,0.043,0.299,0.09,0.442c0.3,0.926,1.027,1.674,1.963,1.963
				c0.406,0.125,0.527,0.116,0.888,0.134c0.361-0.018,0.482-0.009,0.887-0.134c0.737-0.228,1.371-0.75,1.737-1.428
				c0.236-0.436,0.225-0.529,0.317-0.978c0.089,0.439,0.04,0.91-0.091,1.334c-0.383,1.242-1.553,2.099-2.85,2.099
				c-1.297,0-2.468-0.857-2.851-2.099c-0.136-0.439-0.141-0.755-0.119-1.192L217.899,273.744z"/>
		</g>
		<path style="fill:#8A6DE0;" d="M550.871,230.767c-0.106-1.338-0.001-0.22-0.696-3.298c13.327-1.798,5.83-0.724,22.476-3.331
			c8.101-1.248,14.253-2.193,22.367-3.342c3.631-0.514,8.478-1.165,12.312-1.605c3.111-0.356,6.345-0.821,9.491-0.724
			c0.432,0.013,0.857,0.11,1.287,0.166l0.215,0.176c-0.869,0.695-5.564,1.461-6.456,1.633c-5.503,1.059-10.194,1.871-15.863,2.841
			c-6.95,1.189-15.056,2.518-22.013,3.662c-5.836,0.961-10.345,1.693-15.978,2.641l-4.909,0.831L550.871,230.767z"/>
		<path style="fill:#8A6DE0;" d="M445.526,262.713c-87.474-5.972-174.955-11.866-262.39-18.358
			c-15.579-1.157-31.158-2.328-46.729-3.598c-4.888-0.398-10.825-0.895-15.773-1.347c-1.846-0.169-3.693-0.343-5.538-0.532
			c-0.599-0.061-4.85-0.308-5.969-0.848c3.87-0.377,7.909-0.084,11.789,0.034c16.481,0.499,32.956,1.28,49.426,2.039
			c21.807,1.004,43.61,2.068,65.412,3.159c69.932,3.494,139.854,7.178,209.772,10.936V262.713z"/>
		<path style="fill:#8A6DE0;" d="M549.233,263.067l0.46-8.613c88.889-4.729,177.775-9.536,266.692-13.732
			c15.606-0.737,31.212-1.459,46.823-2.083c4.902-0.196,10.903-0.425,15.874-0.575c1.868-0.057,3.736-0.108,5.603-0.146
			c0.59-0.011,5.009-0.227,6.186,0.111c-3.706,0.867-7.727,1.034-11.508,1.38c-16.398,1.5-32.824,2.714-49.243,3.953
			c-21.8,1.644-43.606,3.226-65.412,4.784c-70.747,5.055-141.508,9.915-212.274,14.704L549.233,263.067z"/>
		<path style="fill:#8A6DE0;" d="M446.714,230.573c-17.707-3.129-35.459-6.018-53.128-9.358c-2.296-0.434-6.35-1.222-8.967-1.818
			c-0.274-0.063-2.883-0.525-3.355-1.037l0.213-0.174c1.776-0.219,1.311-0.229,3.57-0.083c6.26,0.4,13.128,1.498,19.296,2.427
			c8.118,1.222,14.064,2.191,22.168,3.504c6.967,1.129,13.935,2.387,20.933,3.326l-0.708,3.061L446.714,230.573z"/>
		<path style="fill:#8A6DE0;" d="M501.671,165.039c-1.568-0.262-0.631-0.146-2.815-0.233c-1.972,0.081-1.241-0.028-2.2,0.136
			c0.231-17.319,0.212-34.658,0.913-51.957c0.117-2.894,0.262-5.785,0.446-8.671c0.107-1.678,0.259-3.352,0.429-5.02
			c0.109-1.078,0.378-3.135,0.717-4.242c0.102-0.332,0.286-0.604,0.429-0.905l0.233-0.117l0.196,0.114
			c0.116,0.297,0.271,0.569,0.35,0.889c0.576,2.327,0.736,6.994,0.817,9.115c0.25,6.412,0.32,12.44,0.374,18.886
			c0.117,13.923,0.072,27.849,0.109,41.773L501.671,165.039z"/>
		<path style="fill:#8A6DE0;" d="M514.62,221.671l0.001,0.02l0.083-1.626c-0.139-2.714-0.635-5.24-1.96-7.665
			c-2.81-5.14-8.382-8.416-14.277-8.416c-7.01,0-13.434,4.648-15.506,11.299c-0.659,2.116-0.837,4.225-0.646,6.407l0.001-0.019
			c0.568-2.765,0.507-3.518,1.876-6.02c2.848-5.209,8.354-8.312,14.275-8.415c1.963,0.098,2.622,0.048,4.828,0.723
			c5.039,1.539,9.124,5.584,10.679,10.575C514.291,219.553,514.404,220.625,514.62,221.671z M460.539,268.765
			c-9.783-12.236-11.887-25.98-8.022-40.872l0.121-0.412c1.14-0.465,0.606-0.265,1.596-0.615c5.659-1.946,11.749-2.237,17.68-2.476
			c0.084-0.003,0.152-1.355,0.152-3.022c0-1.665-0.068-3.013-0.152-3.011c-5.367,0.25-7.288,0.199-13.085,1.246
			c-1.416,0.255-2.771,0.775-4.156,1.164c3.567-12.143,8.136-23.994,14.929-34.736c7.559-11.142,16.772-16.709,28.995-16.709
			c12.322,0,21.619,5.461,29.224,16.452c7.347,10.583,11.15,22.938,15.131,35.01c-5.54-1.993-11.482-2.156-17.299-2.427
			c-0.084-0.002-0.152,1.346-0.153,3.011c0,1.666,0.068,3.019,0.152,3.022c5.932,0.238,12.02,0.529,17.68,2.476
			c0.989,0.351,0.456,0.15,1.594,0.615l0.266,0.907c3.398,13.462-1.81,27.64-10.345,38.2c-5.344-11.656-10.584-25.204-21.854-32.656
			c-2.062-1.322-0.893-0.612-3.537-2.085l-0.02-0.008c-2.881,2.957-6.945,4.104-10.967,4.305c-4.016-0.084-8.06-1.426-10.942-4.282
			c-1.465,0.814-3.029,1.47-4.393,2.442c-9.699,6.921-14.909,18.23-19.906,28.574L460.539,268.765z M516.398,186.755l4.529,0.793
			l-5.9-9.6l-14.932-0.059c0,0-0.135,8.293,0,8.289c4.055-0.104,1.682-0.072,7.12-0.024L516.398,186.755z M482.436,177.948
			l-5.899,9.6c6.829-1.469,13.874-1.548,20.831-1.37c0.135,0.004,0-8.289,0-8.289L482.436,177.948z"/>
	</g>
</g>
</svg>
