<?xml version="1.0" encoding="utf-8"?>
<!-- Generator: Adobe Illustrator 27.5.0, SVG Export Plug-In . SVG Version: 6.00 Build 0)  -->
<svg version="1.1" id="Layer_1" xmlns="http://www.w3.org/2000/svg" xmlns:xlink="http://www.w3.org/1999/xlink" x="0px" y="0px"
	 viewBox="0 0 1000 1000" style="enable-background:new 0 0 1000 1000;" xml:space="preserve">

<g id="Layer_5">
	<g>
		<path style="fill:#8A6DE0;" d="M382.826,919.539c-13.031,0-23.594-10.462-23.594-23.366c0.353-6.921,2.617-12.693,7.922-17.373
		l-32.179-3.99l0.035,0.583c0,3.393-1.633,6.146-3.647,6.146c-2.015,0-3.648-2.752-3.648-6.146c0.079-1.317-0.025-0.837,0.131-1.466
		l-40.182-4.983l0.071,1.232c0,3.467-1.611,6.276-3.6,6.276c-1.988,0-3.6-2.81-3.6-6.276c0.09-1.544-0.026-0.855,0.27-2.081
		l-7.378-0.915c3.068,3.039,4.548,7.26,4.628,11.506c0,9.375-7.673,16.975-17.139,16.975c-9.466,0-17.14-7.6-17.14-16.975
		c0.302-5.919,2.711-10.984,7.888-14.203l-106.176-13.163l-5.847-21.704l4.116-1.417l6.837,15.65l302.459,13.897
		c-0.202-0.771,0.142-1.529,0.319-2.275c-0.012-0.938-0.248-1.863-0.254-2.8l0.077-2.599l-3.327-0.612
		c-8.774-1.604-17.553-3.173-26.318-4.83c-2.553-0.49-4.958-0.965-7.226-1.426c-7.057-1.433-25.559-6.379-25.072-10.48
		c0.318-2.249,1.307-2.987,2.741-3.421c0.627-0.19,1.427-0.302,2.433-0.359c1.765-0.101,4.228-0.03,7.36,0.196
		c5.4,0.389,12.663,1.228,21.6,2.447c1.647,0.225,3.345,0.461,5.097,0.71c17.67,2.622,9.224,1.383,25.337,3.725l0.059-0.2
		c5.212-15.805,10.497-35.997,25.82-45.462c3.998-2.47,5.238-2.681,9.042-3.873l0.352-8.382c0.355-8.079,0.68-16.159,1.147-24.234
		c0.334-5.761,0.691-11.524,1.334-17.271c0.26-2.321,0.531-4.864,0.97-7.187c0.351-1.857,0.959-5.55,3.298-6.768
		c0.839-0.439,1.285-0.406,2.149-0.46c2.061,0,2.997,0.941,3.679,2.4c0.36,0.771,0.663,1.805,0.938,3.135
		c0.486,2.354,0.895,5.704,1.253,10.096c1.072,14.761,1.449,29.544,2.041,44.319l0.158,4.63
		c21.359,6.473,28.481,30.428,34.081,49.432c8.852-1.267,17.696-2.587,26.541-3.899c1.753-0.249,3.45-0.485,5.098-0.71
		c8.937-1.22,16.199-2.059,21.6-2.447c3.133-0.227,5.596-0.297,7.36-0.196c1.006,0.058,1.805,0.169,2.433,0.359
		c1.434,0.434,2.423,1.172,2.741,3.421c0.486,4.102-18.016,9.048-25.072,10.48c-2.268,0.461-4.673,0.936-7.226,1.426
		c-8.766,1.657-17.545,3.226-26.318,4.83c-1.718,0.325-3.429,0.671-5.16,0.914l-0.058,1.057c-0.19,1.94-0.951,4.178-1.005,6.208
		l-0.016,0.287c271.021-12.419,288.683-13.263,306.346-14.077l6.837-15.65l4.116,1.417l-5.848,21.704l-106.177,13.163
		c5.177,3.219,7.587,8.284,7.889,14.203c0,9.375-7.674,16.975-17.14,16.975c-9.466,0-17.139-7.6-17.139-16.975
		c0.08-4.246,1.559-8.467,4.628-11.506l-7.378,0.915c0.296,1.226,0.18,0.537,0.27,2.081c0,3.467-1.612,6.276-3.6,6.276
		c-1.989,0-3.602-2.81-3.602-6.276l0.072-1.232l-40.182,4.983c0.156,0.629,0.052,0.148,0.131,1.466c0,3.393-1.633,6.146-3.648,6.146
		c-2.014,0-3.646-2.752-3.646-6.146l0.035-0.583l-32.179,3.99c5.305,4.68,7.569,10.452,7.922,17.373
		c0,12.904-10.563,23.366-23.594,23.366c-13.03,0-23.594-10.462-23.594-23.366c0.053-4.968,1.34-8.927,4.13-13.019l-58.391,7.239
		c-1.592,3.308-4.439,5.628-7.333,7.778l-5.127,2.369c-1.207,0.18-2.37,0.627-3.587,0.753c-53.158-0.072-46.185,0.552-56.521-1.392
		c-5.308-1.527-8.915-5.458-11.393-10.169l-53.069-6.579c2.79,4.092,4.077,8.051,4.129,13.019
		C406.419,909.077,395.856,919.539,382.826,919.539z"/>
		</g>
	
</g>
</svg>
