<?xml version="1.0" encoding="utf-8"?>
<!-- Generator: Adobe Illustrator 27.5.0, SVG Export Plug-In . SVG Version: 6.00 Build 0)  -->
<svg version="1.1" xmlns="http://www.w3.org/2000/svg" xmlns:xlink="http://www.w3.org/1999/xlink" x="0px" y="0px"
	 viewBox="0 0 500 500" style="enable-background:new 0 0 500 500;" xml:space="preserve">
	<g>
		<path style="fill:#ffffff;" d="M443.13,117.411l-74.13-1.3c0,0-1.15-6.78-7.77-8.7c-11.04-3.2-15.65,5.84-15.65,5.84h-0.02
			l-29.87-3.19c-5.14,0-4.92-3.81-4.92-3.81l21.41-32.92c2.29-3.52,3.55-7.64,3.34-11.83c-0.47-9.35-7.05-12.36-7.05-12.36
			c-3.6-7.16-12.78-8.28-12.78-8.28c-19.26-2.24-31.79,14.78-31.79,14.78l-40.1,53.66l-14.81,0.85l-7.83-22.85l-2.04,2.5
			c-2.2,2.73-3.24,6.23-2.84,9.72l0.65,5.76c-6.57-0.09-10.03,5.89-10.03,5.89c-34.9,3.38-139.92,1.99-139.92,1.99l-10.55,5.01
			l48.3,3.54l-1.57,5.82l13.97,0.99l-0.98,1.69l-1.21,2.69v2.94c0,0.75,0.85,1.18,1.46,0.73l3.56-2.64l2.91-4.99l42.04,3.01
			c-0.12,0.32-0.23,0.61-0.31,0.86l-0.12,0.2l-1.21,2.7v2.93c0,0.76,0.86,1.19,1.46,0.74l3.56-2.64l2.55-4.37l19.89,1.43l6.42,1.07
			c0,0-0.08,7.41,7.21,8.29c2.2,0.27,4.42-0.21,6.4-1.2c1.4-0.69,3.35-1.5,4.76-1.5c1.07,0,2.55-0.47,4.28-1.82l3.19,0.54
			c-3.39,6.42-5.37,12.01-6.52,16.68l-43.42,0.62l-5.07,4.44l47.25,2.54c-0.4,4.9,3.46,9.08,8.37,9.08h4.97
			c11.58-0.97,21.54-5.54,28.99-10.24l3.66-0.1h23.97l3.01-2.48l-22.45-3.32c3.89-3.19,6.05-5.58,6.05-5.58
			c9.85-0.67,15.9-6.72,15.9-6.72s9.57-2.18,26.49-5.24v19.02h-0.13c-0.18-1.3-0.51-2.34-0.82-3.06c-0.29-0.71-1-1.17-1.77-1.17
			h-1.96c-0.07,0-0.12,0.02-0.18,0.06c-0.08-0.04-0.16-0.06-0.22-0.06c-1.08,0-1.94,2.87-1.94,6.41c0,3.53,0.86,6.4,1.94,6.4
			c0.06,0,0.14-0.02,0.22-0.05c0.06,0.03,0.11,0.05,0.18,0.05h1.84c0.8,0,1.54-0.51,1.81-1.26c0.48-1.29,0.76-2.49,0.9-3.6h4.61
			c0.2,2.79,0.95,4.86,1.86,4.86c0.09,0,0.2-0.04,0.3-0.09c0.09,0.05,0.19,0.09,0.3,0.09h1.65c0.81,0,1.53-0.51,1.81-1.26
			c1.81-4.9,0.82-8.59,0.08-10.38c-0.3-0.71-1-1.17-1.78-1.17h-1.76c-0.11,0-0.21,0.04-0.3,0.1c-0.1-0.06-0.21-0.1-0.3-0.1
			c-0.84,0-1.54,1.77-1.8,4.23h-1.29v-9.52l3.88-8.66v-2.11c0.82-0.14,1.65-0.28,2.5-0.43l-0.76,1.65v2.93
			c0,0.75,0.86,1.18,1.47,0.73l3.55-2.63l2.18-3.76c1.51-0.22,3.09-0.44,4.76-0.66c0,0-0.01,0.11-0.01,0.31
			c0,1.29,0.28,6.29,4.67,8.05c2.13,0.85,4.56,0.51,6.52-0.73c1.88-1.18,4.94-2.82,7.93-3.15c4.82-0.54,10.81-7.44,10.81-7.44
			c5.35-0.42,10.63-0.78,15.61-1.11c4.96-0.32,9.59-0.6,13.62-0.82l-1.21,2.68v2.93c0,0.75,0.85,1.18,1.46,0.73l3.56-2.64l2.35-4.04
			c5.28-0.28,8.53-0.42,8.53-0.42l0.9-6.28l26.69-1.43l7.12-4.64C443.29,117.401,443.13,117.411,443.13,117.411z M217.47,126.981
			c-5.17,0-9.34-4.19-9.34-9.34c0-5.17,4.17-9.35,9.34-9.35c5.15,0,9.34,4.18,9.34,9.35
			C226.81,122.791,222.62,126.981,217.47,126.981z M323.05,45.321c0.78,0.17,1.46,0.63,1.89,1.27l1.46,2.12l-5.39-0.51l-1.93-0.7
			l-1.5-3.36L323.05,45.321z M291.78,57.101l3.78-6.18l4.42-3.42l-3.64,6.5L291.78,57.101z M304.42,49.531l-6.51,3.59l3.66-6.26
			l2.85-1.28V49.531z M305.92,45.121l10.03-0.98l1.63,3.36l-1.74,0.81l-9.92,0.81V45.121z M357.28,128.061
			c-5.16,0-9.35-4.18-9.35-9.35c0-5.15,4.19-9.34,9.35-9.34c5.16,0,9.34,4.19,9.34,9.34
			C366.62,123.881,362.44,128.061,357.28,128.061z"/>
	</g>
</svg>
