<?xml version="1.0" encoding="utf-8"?>
<!-- Generator: Adobe Illustrator 27.5.0, SVG Export Plug-In . SVG Version: 6.00 Build 0)  -->
<svg version="1.1" xmlns="http://www.w3.org/2000/svg" xmlns:xlink="http://www.w3.org/1999/xlink" x="0px" y="0px"
	 viewBox="0 0 500 500" style="enable-background:new 0 0 500 500;" xml:space="preserve">
	<g> 
		<path style="fill:#ffffff;" d="M169.93,389.871c-3.96,0-7.17-3.21-7.17-7.17c0-3.96,3.21-7.16,7.17-7.16c3.95,0,7.16,3.2,7.16,7.16
			C177.09,386.661,173.88,389.871,169.93,389.871z M302.53,385.251c-3.96,0-7.16-3.2-7.16-7.16c0-3.96,3.2-7.17,7.16-7.17
			c3.96,0,7.17,3.21,7.17,7.17C309.7,382.051,306.49,385.251,302.53,385.251z M424.04,388.4c0,0-72.56-4.7-109.8-8.77
			c-2.23-8.56-7.98-10.43-8.86-10.67c0-0.01-0.01-0.01-0.02-0.01c-0.06-0.02-0.1-0.03-0.1-0.03c-0.87-0.25-1.78-0.4-2.73-0.4
			c-5,0-9.1,3.85-9.52,8.74c-0.45-0.05-0.7-0.08-0.7-0.08l-20.64-2.85c-3.65-0.47-6.56-1.25-8.68-2.01
			c-2.68-0.93-4.69-3.16-5.38-5.91l-18.15-57.35c-1.99-6.28-5.78-11.91-11.06-15.86c-5.15-3.85-13.69-6.28-19.23-0.63
			c-4.15,4.23-6.39,9.42-7.56,14.26c-1.65,6.8-1.31,13.93,0.68,20.64l10.8,36.42c0,0,2.61,8.61-2.84,10.67
			c-3.84,1.44-16.07,4.51-28.71,7.09c-3.43-7.13-8.79-8.2-9.84-8.34c-0.57-0.11-1.17-0.17-1.77-0.17c-5.28,0-9.57,4.28-9.57,9.56
			c0,1.07,0.19,2.1,0.51,3.06c-0.57,0.11-0.88,0.17-0.88,0.17c-11.3,4.13-60.89,10.4-82.57,13.02l-9.78-5.24h-5.46l5.03,6.43
			l4.45,5.24l52.39,0.77l0.52,4.37c2.1-0.27,4.46-0.49,7.02-0.68l0.32,2.52c0.02,0.13,0.06,0.25,0.14,0.36l1.64,2.35
			c0.44,0.62,1.41,0.43,1.58-0.31l0.73-3.11c0-0.1,0.01-0.19,0.01-0.29l-0.26-1.78c4.98-0.27,10.48-0.42,16.09-0.5l0.43,3.28
			c0.02,0.14,0.07,0.28,0.15,0.4l1.63,2.31c0.44,0.62,1.4,0.43,1.58-0.31l0.71-3.08c0.01-0.11,0.02-0.28,0.02-0.39l-0.33-2.25
			c5.51-0.04,11.03-0.01,16.17,0.06l0.43,3.26c0.02,0.14,0.07,0.28,0.15,0.39l1.63,2.32c0.44,0.62,1.4,0.43,1.57-0.31l0.74-3.13
			c0-0.1,0.01-0.2,0.01-0.3l-0.32-2.17c6.56,0.11,12.27,0.26,16.21,0.39l0.37,2.81c0.02,0.14,0.07,0.28,0.15,0.4l1.63,2.31
			c0.43,0.62,1.4,0.43,1.57-0.31l0.72-3.06c0.01-0.11,0.02-0.27,0.02-0.37l-0.24-1.64c0.93,0.03,1.44,0.05,1.44,0.05l8.02,1.31v8.97
			h-0.59c-0.22-1.99-0.79-3.43-1.46-3.43c-0.09,0-0.16,0.04-0.24,0.08c-0.08-0.04-0.16-0.08-0.26-0.08h-1.43
			c-0.63,0-1.2,0.37-1.45,0.95c-0.6,1.45-1.4,4.46,0.07,8.45c0.22,0.61,0.82,1.02,1.47,1.02h1.34c0.1,0,0.18-0.03,0.26-0.08
			c0.08,0.04,0.15,0.08,0.24,0.08c0.73,0,1.34-1.69,1.51-3.95h0.76l1.4,8.06h-0.3c-0.2-1.8-0.71-3.09-1.32-3.09
			c-0.07,0-0.15,0.03-0.22,0.07c-0.07-0.04-0.14-0.07-0.23-0.07h-1.29c-0.56,0-1.08,0.33-1.3,0.85c-0.55,1.3-1.27,4.03,0.05,7.62
			c0.21,0.55,0.74,0.92,1.33,0.92h1.21c0.09,0,0.16-0.03,0.23-0.07c0.07,0.03,0.15,0.07,0.22,0.07c0.66,0,1.21-1.52,1.36-3.56h3.38
			c0.11,0.8,0.31,1.67,0.65,2.61c0.2,0.56,0.74,0.95,1.34,0.95h1.35c0.05,0,0.09-0.03,0.14-0.06c0.05,0.03,0.11,0.06,0.16,0.06
			c0.78,0,1.41-2.1,1.41-4.7c0-2.59-0.63-4.69-1.41-4.69c-0.05,0-0.11,0.03-0.16,0.05c-0.05-0.02-0.09-0.05-0.14-0.05h-1.44
			c-0.57,0-1.08,0.33-1.3,0.85c-0.22,0.53-0.46,1.29-0.59,2.24h-0.4l-1.41-8.06h0.27c0.12,0.9,0.34,1.88,0.72,2.93
			c0.23,0.61,0.82,1.02,1.48,1.02h1.5c0.06,0,0.1-0.04,0.15-0.06c0.06,0.02,0.12,0.06,0.19,0.06c0.86,0,1.56-2.33,1.56-5.21
			c0-2.88-0.7-5.21-1.56-5.21c-0.07,0-0.13,0.04-0.19,0.07c-0.05-0.03-0.09-0.07-0.15-0.07h-1.6c-0.63,0-1.2,0.37-1.44,0.95
			c-0.24,0.58-0.51,1.43-0.66,2.48h-0.53l0.06-8.52l12.41,2.36c0,0,2.87,11.83,10.67,11.49c4.17,11.41,11.16,20.09,11.16,20.09
			l-34.42,3.34l-1.28,3.86l44.43,0.25c0,0,3.55,2.8,8.42,3.87c4.73,1.04,9.73-0.87,12.3-4.98l0.04-0.07l39.97-1.64l-2.82-3.86
			l-34.82-1.39c0.51-3.94-0.13-7.22-0.13-7.22l-3.5-14.58l-2.44-10.21l-0.01-0.03l9.8-2.09v6.66h-0.11
			c-0.15-1.03-0.39-1.85-0.63-2.43c-0.26-0.61-0.84-1.01-1.5-1.01h-1.57c-0.05,0-0.1,0.04-0.15,0.07c-0.06-0.03-0.12-0.07-0.18-0.07
			c-0.86,0-1.56,2.34-1.56,5.21c0,2.88,0.7,5.21,1.56,5.21c0.06,0,0.12-0.04,0.18-0.06c0.05,0.03,0.1,0.06,0.15,0.06h1.5
			c0.67,0,1.27-0.42,1.5-1.05c0.37-1.04,0.59-2.01,0.7-2.9h0.38l1.35,8.06h-0.51c-0.13-0.94-0.37-1.71-0.59-2.23
			c-0.22-0.53-0.74-0.86-1.3-0.86h-1.44c-0.06,0-0.1,0.03-0.14,0.06c-0.05-0.03-0.11-0.06-0.17-0.06c-0.77,0-1.4,2.1-1.4,4.7
			c0,2.59,0.63,4.69,1.4,4.69c0.06,0,0.12-0.03,0.17-0.05c0.04,0.02,0.08,0.05,0.14,0.05h1.35c0.6,0,1.14-0.39,1.34-0.95
			c0.34-0.94,0.54-1.81,0.64-2.61h3.38c0.16,2.04,0.71,3.56,1.37,3.56c0.07,0,0.14-0.03,0.21-0.07c0.07,0.04,0.15,0.07,0.24,0.07h1.2
			c0.6,0,1.13-0.38,1.34-0.94c1.31-3.58,0.6-6.29,0.05-7.59c-0.22-0.53-0.73-0.86-1.3-0.86h-1.29c-0.09,0-0.17,0.03-0.24,0.07
			c-0.07-0.03-0.14-0.07-0.21-0.07c-0.61,0-1.13,1.29-1.32,3.09h-0.35l-1.29-8.06h0.74c0.17,2.27,0.78,3.95,1.52,3.95
			c0.08,0,0.16-0.04,0.24-0.08c0.07,0.05,0.16,0.08,0.25,0.08h1.34c0.66,0,1.25-0.41,1.48-1.02c1.46-3.99,0.66-7.02,0.05-8.46
			c-0.24-0.58-0.81-0.94-1.43-0.94h-1.44c-0.09,0-0.18,0.04-0.25,0.09c-0.08-0.05-0.16-0.09-0.24-0.09c-0.68,0-1.25,1.44-1.47,3.44
			h-1.04v-7.22l12.6-2.68l0.39,3c0.02,0.15,0.07,0.3,0.16,0.42l1.62,2.31c0.44,0.62,1.41,0.43,1.58-0.31l0.72-3.08
			c0.01-0.13,0.01-0.25,0.02-0.38l-0.42-2.83l4.18-0.89l15.43-0.45l0.36,2.7c0.01,0.14,0.07,0.27,0.15,0.39l1.63,2.31
			c0.43,0.62,1.4,0.44,1.57-0.3l0.72-3.06c0.01-0.13,0.01-0.25,0.02-0.38l-0.26-1.78l18.25-0.54l0.44,3.36
			c0.02,0.14,0.07,0.27,0.15,0.39l1.63,2.31c0.44,0.62,1.4,0.44,1.57-0.3l0.74-3.14c0-0.09,0.01-0.19,0.01-0.28l-0.36-2.46
			l19.54-0.57l0.34,2.64c0.02,0.14,0.07,0.27,0.15,0.39l1.63,2.31c0.44,0.62,1.4,0.43,1.58-0.31l0.72-3.1c0-0.1,0.01-0.25,0.01-0.34
			l-0.25-1.71l9.43-0.28l-1.26-5.63l53.42-3.19l8.14-7.53v-4.07L424.04,388.4z M213.05,292.98l-5.42,2.95l2.54-3.14l3.88-2.1
			L213.05,292.98z M214.61,292.81l0.61-2.25l5.07,0.92l1.63,2.88L214.61,292.81z M223.43,294.87l-1.78-2.99l1.8,0.55
			c0.75,0.22,1.39,0.72,1.8,1.38l1.63,2.65L223.43,294.87z"/>
	</g>
</svg>
